<svg width="30" height="30" viewBox="0 0 30 30" fill="none" xmlns="http://www.w3.org/2000/svg">
<g clip-path="url(#clip0_129_251)">
<path fill-rule="evenodd" clip-rule="evenodd" d="M15 0C17.9667 0 20.8668 0.879735 23.3335 2.52796C25.8003 4.17618 27.7229 6.51886 28.8582 9.25975C29.9935 12.0006 30.2906 15.0166 29.7118 17.9264C29.133 20.8361 27.7044 23.5088 25.6066 25.6066C23.5088 27.7044 20.8361 29.133 17.9263 29.7118C15.0166 30.2906 12.0006 29.9935 9.25974 28.8582C6.51885 27.7229 4.17617 25.8003 2.52795 23.3336C0.879726 20.8668 -7.62939e-06 17.9667 -7.62939e-06 15C0.00184822 11.0223 1.5828 7.20809 4.39544 4.39545C7.20808 1.5828 11.0223 0.00185495 15 0ZM15 2C12.4288 2 9.91542 2.76244 7.77758 4.1909C5.63974 5.61935 3.9735 7.64968 2.98956 10.0251C2.00562 12.4006 1.74818 15.0144 2.24978 17.5362C2.75139 20.0579 3.98952 22.3743 5.8076 24.1924C7.62569 26.0105 9.94206 27.2486 12.4638 27.7502C14.9856 28.2518 17.5994 27.9944 19.9749 27.0104C22.3503 26.0265 24.3806 24.3603 25.8091 22.2224C27.2376 20.0846 28 17.5712 28 15C27.9984 11.5527 26.6283 8.247 24.1906 5.80937C21.753 3.37174 18.4473 2.00159 15 2Z" fill="white"/>
<path fill-rule="evenodd" clip-rule="evenodd" d="M11.3111 20.328L16.5802 15.0113L11.2634 9.74215C11.1675 9.65033 11.0908 9.54033 11.0378 9.41857C10.9849 9.2968 10.9567 9.1657 10.9549 9.03293C10.9532 8.90016 10.9779 8.76837 11.0276 8.64525C11.0774 8.52212 11.1511 8.41014 11.2446 8.31582C11.338 8.22151 11.4494 8.14675 11.572 8.09592C11.6947 8.04509 11.8263 8.01919 11.959 8.01975C12.0918 8.0203 12.2232 8.0473 12.3454 8.09916C12.4676 8.15102 12.5783 8.2267 12.671 8.3218L18.698 14.2947C18.8863 14.4814 18.9927 14.7352 18.9939 15.0004C18.9951 15.2656 18.891 15.5203 18.7043 15.7087L12.7314 21.7357C12.5436 21.9187 12.2915 22.0206 12.0293 22.0195C11.7671 22.0184 11.5158 21.9144 11.3295 21.7298C11.1433 21.5452 11.037 21.2949 11.0335 21.0327C11.0301 20.7705 11.1297 20.5175 11.3111 20.328Z" fill="white"/>
</g>
<defs>
<clipPath id="clip0_129_251">
<rect width="30" height="30" fill="white" transform="matrix(-1 0 0 1 30 0)"/>
</clipPath>
</defs>
</svg>
