<svg width="30" height="30" viewBox="0 0 30 30" fill="none" xmlns="http://www.w3.org/2000/svg">
<g clip-path="url(#clip0_130_254)">
<path fill-rule="evenodd" clip-rule="evenodd" d="M15 0C17.9667 0 20.8668 0.879735 23.3335 2.52796C25.8003 4.17618 27.7229 6.51886 28.8582 9.25975C29.9935 12.0006 30.2906 15.0166 29.7118 17.9264C29.133 20.8361 27.7044 23.5088 25.6066 25.6066C23.5088 27.7044 20.8361 29.133 17.9263 29.7118C15.0166 30.2906 12.0006 29.9935 9.25974 28.8582C6.51885 27.7229 4.17617 25.8003 2.52795 23.3336C0.879727 20.8668 -7.62939e-06 17.9667 -7.62939e-06 15C0.00184732 11.0223 1.5828 7.20809 4.39544 4.39545C7.20808 1.5828 11.0223 0.00185495 15 0V0ZM15 2C12.4288 2 9.91542 2.76244 7.77758 4.1909C5.63974 5.61935 3.9735 7.64968 2.98956 10.0251C2.00562 12.4006 1.74818 15.0144 2.24978 17.5362C2.75139 20.0579 3.98952 22.3743 5.8076 24.1924C7.62569 26.0105 9.94206 27.2486 12.4638 27.7502C14.9856 28.2518 17.5994 27.9944 19.9749 27.0104C22.3503 26.0265 24.3806 24.3603 25.8091 22.2224C27.2376 20.0846 28 17.5712 28 15C27.9984 11.5527 26.6283 8.247 24.1906 5.80937C21.753 3.37174 18.4473 2.00159 15 2V2Z" fill="white"/>
<path fill-rule="evenodd" clip-rule="evenodd" d="M18.6648 20.328L13.3957 15.0113L18.7124 9.74215C18.8084 9.65033 18.885 9.54033 18.938 9.41857C18.991 9.2968 19.0191 9.1657 19.0209 9.03293C19.0226 8.90016 18.9979 8.76837 18.9482 8.64525C18.8985 8.52212 18.8247 8.41014 18.7313 8.31582C18.6378 8.22151 18.5265 8.14675 18.4038 8.09592C18.2811 8.04509 18.1496 8.01919 18.0168 8.01975C17.884 8.0203 17.7527 8.0473 17.6304 8.09916C17.5082 8.15102 17.3975 8.2267 17.3048 8.3218L11.2779 14.2947C11.0896 14.4814 10.9831 14.7352 10.9819 15.0004C10.9807 15.2656 11.0849 15.5203 11.2715 15.7087L17.2444 21.7357C17.4322 21.9187 17.6844 22.0206 17.9466 22.0195C18.2088 22.0184 18.46 21.9144 18.6463 21.7298C18.8325 21.5452 18.9388 21.2949 18.9423 21.0327C18.9457 20.7705 18.8461 20.5175 18.6648 20.328Z" fill="white"/>
</g>
<defs>
<clipPath id="clip0_130_254">
<rect width="30" height="30" fill="white" transform="matrix(-1 0 0 1 30 0)"/>
</clipPath>
</defs>
</svg>
