<svg width="123" height="46" viewBox="0 0 123 46" fill="none" xmlns="http://www.w3.org/2000/svg">
<path d="M42.3121 25C42.0087 25 41.7432 24.8957 41.5157 24.6871C41.3071 24.4596 41.2028 24.1941 41.2028 23.8907V3.89422C41.2028 3.59081 41.3071 3.33481 41.5157 3.12622C41.7432 2.89866 42.0087 2.78489 42.3121 2.78489C42.6155 2.78489 42.8715 2.89866 43.0801 3.12622C43.3077 3.33481 43.4214 3.59081 43.4214 3.89422V13.5653L53.8037 3.18311C53.9554 3.0314 54.0976 2.92711 54.2303 2.87022C54.3631 2.81333 54.5148 2.78489 54.6854 2.78489C55.0268 2.78489 55.2828 2.88918 55.4534 3.09777C55.6241 3.30637 55.7 3.56237 55.681 3.86578C55.681 4.15022 55.5672 4.42518 55.3397 4.69066L47.5459 12.4844L55.425 23.2364C55.5957 23.483 55.662 23.7484 55.6241 24.0329C55.6051 24.2984 55.5008 24.5259 55.3112 24.7156C55.1216 24.9052 54.894 25 54.6285 25C54.2114 25 53.8985 24.8388 53.6899 24.5164L45.953 14.0489L43.4214 16.6089V23.8907C43.4214 24.1941 43.3077 24.4596 43.0801 24.6871C42.8715 24.8957 42.6155 25 42.3121 25ZM64.5188 25.1422C63.0017 25.1422 61.6459 24.8009 60.4512 24.1182C59.2565 23.4356 58.3179 22.4969 57.6352 21.3022C56.9525 20.1076 56.6112 18.7517 56.6112 17.2347C56.6112 15.6987 56.9525 14.3333 57.6352 13.1387C58.3179 11.944 59.2565 11.0053 60.4512 10.3227C61.6459 9.64 63.0017 9.29866 64.5188 9.29866C66.0358 9.29866 67.3822 9.64 68.5579 10.3227C69.7525 11.0053 70.6912 11.944 71.3739 13.1387C72.0565 14.3333 72.4074 15.6987 72.4263 17.2347C72.4263 18.7517 72.0755 20.1076 71.3739 21.3022C70.6912 22.4969 69.7525 23.4356 68.5579 24.1182C67.3822 24.8009 66.0358 25.1422 64.5188 25.1422ZM64.5188 23.1511C65.6186 23.1511 66.6047 22.8951 67.477 22.3831C68.3493 21.8711 69.032 21.1695 69.525 20.2782C70.018 19.387 70.2645 18.3724 70.2645 17.2347C70.2645 16.0969 70.018 15.0824 69.525 14.1911C69.032 13.2809 68.3493 12.5698 67.477 12.0578C66.6047 11.5458 65.6186 11.2898 64.5188 11.2898C63.4189 11.2898 62.4328 11.5458 61.5605 12.0578C60.6883 12.5698 59.9961 13.2809 59.4841 14.1911C58.9911 15.0824 58.7445 16.0969 58.7445 17.2347C58.7445 18.3724 58.9911 19.387 59.4841 20.2782C59.9961 21.1695 60.6883 21.8711 61.5605 22.3831C62.4328 22.8951 63.4189 23.1511 64.5188 23.1511ZM83.1145 25.1422C81.6544 25.1422 80.346 24.8009 79.1892 24.1182C78.0325 23.4166 77.1128 22.4684 76.4301 21.2738C75.7664 20.0791 75.4345 18.7327 75.4345 17.2347C75.4345 15.7176 75.7759 14.3618 76.4585 13.1671C77.1602 11.9724 78.1083 11.0338 79.303 10.3511C80.4977 9.64948 81.844 9.29866 83.3421 9.29866C84.8402 9.29866 86.1771 9.64948 87.3528 10.3511C88.5474 11.0338 89.4861 11.9724 90.1688 13.1671C90.8704 14.3618 91.2307 15.7176 91.2497 17.2347L90.3679 17.9173C90.3679 19.2827 90.0455 20.5153 89.4008 21.6151C88.775 22.696 87.9122 23.5588 86.8123 24.2036C85.7314 24.8293 84.4988 25.1422 83.1145 25.1422ZM83.3421 23.1511C84.442 23.1511 85.4185 22.8951 86.2719 22.3831C87.1442 21.8711 87.8268 21.1695 88.3199 20.2782C88.8319 19.368 89.0879 18.3535 89.0879 17.2347C89.0879 16.0969 88.8319 15.0824 88.3199 14.1911C87.8268 13.2999 87.1442 12.5982 86.2719 12.0862C85.4185 11.5553 84.442 11.2898 83.3421 11.2898C82.2612 11.2898 81.2846 11.5553 80.4123 12.0862C79.54 12.5982 78.8479 13.2999 78.3359 14.1911C77.8239 15.0824 77.5679 16.0969 77.5679 17.2347C77.5679 18.3535 77.8239 19.368 78.3359 20.2782C78.8479 21.1695 79.54 21.8711 80.4123 22.3831C81.2846 22.8951 82.2612 23.1511 83.3421 23.1511ZM90.1403 25C89.818 25 89.5525 24.9052 89.3439 24.7156C89.1353 24.507 89.031 24.2415 89.031 23.9191V19.0551L89.5714 16.808L91.2497 17.2347V23.9191C91.2497 24.2415 91.1454 24.507 90.9368 24.7156C90.7282 24.9052 90.4627 25 90.1403 25ZM98.4392 25C97.6807 25 96.998 24.7914 96.3912 24.3742C95.8034 23.957 95.3388 23.3787 94.9974 22.6391C94.6751 21.8996 94.5139 21.0462 94.5139 20.0791V3.86578C94.5139 3.5434 94.6087 3.2874 94.7983 3.09777C95.0069 2.88918 95.2724 2.78489 95.5948 2.78489C95.9171 2.78489 96.1731 2.88918 96.3628 3.09777C96.5714 3.2874 96.6757 3.5434 96.6757 3.86578V20.0791C96.6757 20.8945 96.8368 21.5582 97.1592 22.0702C97.5006 22.5822 97.9272 22.8382 98.4392 22.8382H99.1503C99.4348 22.8382 99.6623 22.9425 99.833 23.1511C100.004 23.3407 100.089 23.5967 100.089 23.9191C100.089 24.2415 99.9657 24.507 99.7192 24.7156C99.4917 24.9052 99.1883 25 98.809 25H98.4392ZM108.678 25.1422C107.218 25.1422 105.909 24.8009 104.753 24.1182C103.596 23.4166 102.676 22.4684 101.993 21.2738C101.33 20.0791 100.998 18.7327 100.998 17.2347C100.998 15.7176 101.339 14.3618 102.022 13.1671C102.724 11.9724 103.672 11.0338 104.866 10.3511C106.061 9.64948 107.407 9.29866 108.905 9.29866C110.404 9.29866 111.74 9.64948 112.916 10.3511C114.111 11.0338 115.049 11.9724 115.732 13.1671C116.434 14.3618 116.794 15.7176 116.813 17.2347L115.931 17.9173C115.931 19.2827 115.609 20.5153 114.964 21.6151C114.338 22.696 113.476 23.5588 112.376 24.2036C111.295 24.8293 110.062 25.1422 108.678 25.1422ZM108.905 23.1511C110.005 23.1511 110.982 22.8951 111.835 22.3831C112.708 21.8711 113.39 21.1695 113.883 20.2782C114.395 19.368 114.651 18.3535 114.651 17.2347C114.651 16.0969 114.395 15.0824 113.883 14.1911C113.39 13.2999 112.708 12.5982 111.835 12.0862C110.982 11.5553 110.005 11.2898 108.905 11.2898C107.825 11.2898 106.848 11.5553 105.976 12.0862C105.103 12.5982 104.411 13.2999 103.899 14.1911C103.387 15.0824 103.131 16.0969 103.131 17.2347C103.131 18.3535 103.387 19.368 103.899 20.2782C104.411 21.1695 105.103 21.8711 105.976 22.3831C106.848 22.8951 107.825 23.1511 108.905 23.1511ZM115.704 25C115.381 25 115.116 24.9052 114.907 24.7156C114.699 24.507 114.594 24.2415 114.594 23.9191V19.0551L115.135 16.808L116.813 17.2347V23.9191C116.813 24.2415 116.709 24.507 116.5 24.7156C116.292 24.9052 116.026 25 115.704 25Z" fill="white"/>
<path d="M43.113 57C42.8096 57 42.5441 56.8957 42.3165 56.6871C42.108 56.4596 42.0037 56.1941 42.0037 55.8907V35.8942C42.0037 35.5718 42.108 35.3064 42.3165 35.0978C42.5251 34.8892 42.7906 34.7849 43.113 34.7849H56.4534C56.7758 34.7849 57.0413 34.8892 57.2499 35.0978C57.4585 35.2874 57.5628 35.5434 57.5628 35.8658C57.5628 36.1502 57.4585 36.3967 57.2499 36.6053C57.0413 36.8139 56.7758 36.9182 56.4534 36.9182H44.2223V44.7689H53.1254C53.4478 44.7689 53.7133 44.8732 53.9219 45.0818C54.1305 45.2904 54.2348 45.5464 54.2348 45.8498C54.2348 46.1532 54.1305 46.4092 53.9219 46.6178C53.7133 46.8264 53.4478 46.9307 53.1254 46.9307H44.2223V55.8907C44.2223 56.1941 44.118 56.4596 43.9094 56.6871C43.7008 56.8957 43.4354 57 43.113 57ZM62.3983 57C62.057 57 61.782 56.9052 61.5734 56.7156C61.3838 56.507 61.289 56.232 61.289 55.8907V42.5502C61.289 42.2089 61.3838 41.9434 61.5734 41.7538C61.782 41.5452 62.057 41.4409 62.3983 41.4409C62.7207 41.4409 62.9767 41.5452 63.1663 41.7538C63.3749 41.9434 63.4792 42.2089 63.4792 42.5502V55.8907C63.4792 56.232 63.3749 56.507 63.1663 56.7156C62.9767 56.9052 62.7207 57 62.3983 57ZM62.3699 38.4827C61.9527 38.4827 61.5924 38.331 61.289 38.0276C60.9856 37.7241 60.8339 37.3544 60.8339 36.9182C60.8339 36.4441 60.9856 36.0744 61.289 35.8089C61.6114 35.5244 61.9811 35.3822 62.3983 35.3822C62.7965 35.3822 63.1474 35.5244 63.4508 35.8089C63.7731 36.0744 63.9343 36.4441 63.9343 36.9182C63.9343 37.3544 63.7826 37.7241 63.4792 38.0276C63.1758 38.331 62.806 38.4827 62.3699 38.4827ZM71.9859 57C71.2274 57 70.5447 56.7914 69.9379 56.3742C69.35 55.957 68.8854 55.3787 68.5441 54.6391C68.2217 53.8996 68.0605 53.0462 68.0605 52.0791V35.8658C68.0605 35.5434 68.1554 35.2874 68.345 35.0978C68.5536 34.8892 68.8191 34.7849 69.1414 34.7849C69.4638 34.7849 69.7198 34.8892 69.9094 35.0978C70.118 35.2874 70.2223 35.5434 70.2223 35.8658V52.0791C70.2223 52.8945 70.3835 53.5582 70.7059 54.0702C71.0472 54.5822 71.4739 54.8382 71.9859 54.8382H72.697C72.9814 54.8382 73.209 54.9425 73.3797 55.1511C73.5503 55.3407 73.6357 55.5967 73.6357 55.9191C73.6357 56.2415 73.5124 56.507 73.2659 56.7156C73.0383 56.9052 72.7349 57 72.3557 57H71.9859ZM97.251 57C96.9286 57 96.6631 56.9052 96.4546 56.7156C96.246 56.507 96.1417 56.2415 96.1417 55.9191V47.7271C96.1417 46.3807 95.7908 45.3188 95.0892 44.5413C94.3876 43.7449 93.4868 43.3467 92.387 43.3467C91.2113 43.3467 90.2442 43.7449 89.4857 44.5413C88.7461 45.3188 88.3858 46.3618 88.4048 47.6702H86.4421C86.4611 46.3997 86.736 45.2809 87.267 44.3138C87.798 43.3467 88.528 42.5976 89.4572 42.0667C90.3864 41.5357 91.4388 41.2702 92.6145 41.2702C93.7334 41.2702 94.7194 41.5357 95.5728 42.0667C96.4451 42.5976 97.1183 43.3467 97.5923 44.3138C98.0854 45.2809 98.3319 46.4187 98.3319 47.7271V55.9191C98.3319 56.2415 98.2276 56.507 98.019 56.7156C97.8294 56.9052 97.5734 57 97.251 57ZM77.3399 57C76.9985 57 76.7236 56.9052 76.515 56.7156C76.3254 56.507 76.2305 56.2415 76.2305 55.9191V42.5502C76.2305 42.2278 76.3254 41.9624 76.515 41.7538C76.7236 41.5452 76.9985 41.4409 77.3399 41.4409C77.6623 41.4409 77.9183 41.5452 78.1079 41.7538C78.3165 41.9624 78.4208 42.2278 78.4208 42.5502V55.9191C78.4208 56.2415 78.3165 56.507 78.1079 56.7156C77.9183 56.9052 77.6623 57 77.3399 57ZM87.3239 57C87.0015 57 86.736 56.9052 86.5274 56.7156C86.3188 56.507 86.2145 56.2415 86.2145 55.9191V47.7271C86.2145 46.3807 85.8637 45.3188 85.1621 44.5413C84.4605 43.7449 83.5597 43.3467 82.4599 43.3467C81.2842 43.3467 80.3171 43.7354 79.5585 44.5129C78.8 45.2714 78.4208 46.267 78.4208 47.4996H76.8563C76.8943 46.2859 77.1597 45.2145 77.6528 44.2853C78.1648 43.3372 78.8569 42.5976 79.7292 42.0667C80.6015 41.5357 81.5876 41.2702 82.6874 41.2702C83.8063 41.2702 84.7923 41.5357 85.6457 42.0667C86.518 42.5976 87.1911 43.3467 87.6652 44.3138C88.1583 45.2809 88.4048 46.4187 88.4048 47.7271V55.9191C88.4048 56.2415 88.3005 56.507 88.0919 56.7156C87.9023 56.9052 87.6463 57 87.3239 57ZM108.181 57.1422C107.062 57.1422 105.953 56.9526 104.853 56.5733C103.753 56.1941 102.862 55.6252 102.179 54.8667C101.971 54.6391 101.886 54.3831 101.923 54.0987C101.961 53.8142 102.104 53.5677 102.35 53.3591C102.616 53.1695 102.891 53.0936 103.175 53.1316C103.459 53.1695 103.696 53.2927 103.886 53.5013C104.341 54.0323 104.939 54.44 105.678 54.7244C106.437 55.0089 107.271 55.1511 108.181 55.1511C109.584 55.1511 110.599 54.9141 111.225 54.44C111.851 53.947 112.173 53.3591 112.192 52.6764C112.192 51.9938 111.87 51.4344 111.225 50.9982C110.58 50.5431 109.518 50.1923 108.039 49.9458C106.124 49.6424 104.72 49.1114 103.829 48.3529C102.938 47.5944 102.492 46.6936 102.492 45.6507C102.492 44.6836 102.748 43.8776 103.26 43.2329C103.772 42.5881 104.455 42.1046 105.308 41.7822C106.162 41.4598 107.1 41.2987 108.124 41.2987C109.395 41.2987 110.485 41.5167 111.395 41.9529C112.325 42.389 113.074 42.9769 113.643 43.7164C113.832 43.963 113.908 44.219 113.87 44.4844C113.832 44.7499 113.68 44.968 113.415 45.1387C113.187 45.2714 112.922 45.3188 112.619 45.2809C112.334 45.224 112.088 45.0818 111.879 44.8542C111.405 44.3043 110.855 43.9061 110.229 43.6596C109.603 43.3941 108.883 43.2613 108.067 43.2613C107.024 43.2613 106.19 43.4794 105.564 43.9156C104.939 44.3327 104.626 44.8637 104.626 45.5084C104.626 45.9446 104.739 46.3239 104.967 46.6462C105.214 46.9686 105.621 47.253 106.19 47.4996C106.778 47.7461 107.593 47.9547 108.636 48.1253C110.059 48.3529 111.177 48.6942 111.993 49.1493C112.827 49.5855 113.415 50.107 113.756 50.7138C114.117 51.3016 114.297 51.9464 114.297 52.648C114.297 53.5393 114.031 54.3262 113.5 55.0089C112.988 55.6726 112.268 56.1941 111.339 56.5733C110.428 56.9526 109.376 57.1422 108.181 57.1422Z" fill="black"/>
<path fill-rule="evenodd" clip-rule="evenodd" d="M15.8464 2.96296H8.58307e-06L6.67216 9.63511H22.5185L15.8464 2.96296ZM6.67215 9.63512V25.4815L0 18.8093V2.96297L6.67215 9.63512Z" fill="#CCCCCC"/>
<path fill-rule="evenodd" clip-rule="evenodd" d="M6.67218 25.4815L22.5185 25.4815L15.8464 18.8093L2.28882e-05 18.8093L6.67218 25.4815ZM15.8464 18.8093L15.8464 2.96296L22.5186 9.63511L22.5186 25.4815L15.8464 18.8093Z" fill="black"/>
</svg>
